<mxfile host="app.diagrams.net" agent="Mozilla/5.0 (X11; Linux x86_64; rv:135.0) Gecko/20100101 Firefox/135.0" version="26.0.16">
  <diagram name="PÃ¡gina-1" id="2-9FwrJXLyp1qxpzA7oT">
    <mxGraphModel grid="1" page="1" gridSize="10" guides="1" tooltips="1" connect="1" arrows="1" fold="1" pageScale="1" pageWidth="827" pageHeight="1169" math="0" shadow="0">
      <root>
        <mxCell id="0" />
        <mxCell id="1" parent="0" />
        <mxCell id="Goqiz1nMPy2O-ww6rEa_-2" value="" style="rounded=0;whiteSpace=wrap;html=1;strokeWidth=2;dashed=1;dashPattern=1 4;glass=0;fillColor=none;" vertex="1" parent="1">
          <mxGeometry x="240" y="290" width="380" height="150" as="geometry" />
        </mxCell>
        <mxCell id="Goqiz1nMPy2O-ww6rEa_-1" value="" style="rounded=0;whiteSpace=wrap;html=1;dashed=1;dashPattern=1 4;strokeWidth=2;fillColor=none;" vertex="1" parent="1">
          <mxGeometry x="240" y="40" width="530" height="230" as="geometry" />
        </mxCell>
        <mxCell id="G_4C587izHfnSDJgf1kJ-72" value="&lt;div&gt;&lt;div&gt;&lt;div&gt;&amp;lt;&amp;lt;contexto escalante&amp;gt;&amp;gt;&lt;/div&gt;&lt;/div&gt;&lt;/div&gt;&lt;div&gt;&lt;div&gt;&amp;lt;&amp;lt;entidade&amp;gt;&amp;gt;&lt;/div&gt;&lt;/div&gt;&lt;div&gt;&lt;font style=&quot;font-size: 14px;&quot;&gt;MilitarEscalado&lt;/font&gt;&lt;/div&gt;" style="swimlane;fontStyle=0;childLayout=stackLayout;horizontal=1;startSize=50;fillColor=#647687;horizontalStack=0;resizeParent=1;resizeParentMax=0;resizeLast=0;collapsible=1;marginBottom=0;whiteSpace=wrap;html=1;fontColor=#ffffff;strokeColor=#314354;" vertex="1" parent="1">
          <mxGeometry x="250" y="120" width="150" height="76" as="geometry" />
        </mxCell>
        <mxCell id="G_4C587izHfnSDJgf1kJ-82" value="&lt;div&gt;&amp;lt;&amp;lt;objeto de valor&amp;gt;&amp;gt;&lt;br&gt;&lt;font style=&quot;font-size: 14px;&quot;&gt;EscalaPrevista&lt;/font&gt;&lt;/div&gt;" style="swimlane;fontStyle=0;childLayout=stackLayout;horizontal=1;startSize=39;fillColor=#647687;horizontalStack=0;resizeParent=1;resizeParentMax=0;resizeLast=0;collapsible=1;marginBottom=0;whiteSpace=wrap;html=1;fontColor=#ffffff;strokeColor=#314354;" vertex="1" parent="1">
          <mxGeometry x="420" y="181" width="150" height="65" as="geometry" />
        </mxCell>
        <mxCell id="G_4C587izHfnSDJgf1kJ-96" value="&lt;div&gt;&amp;lt;&amp;lt;objeto de valor&amp;gt;&amp;gt;&lt;br&gt;&lt;font style=&quot;font-size: 14px;&quot;&gt;Permuta&lt;/font&gt;&lt;/div&gt;" style="swimlane;fontStyle=0;childLayout=stackLayout;horizontal=1;startSize=40;fillColor=#647687;horizontalStack=0;resizeParent=1;resizeParentMax=0;resizeLast=0;collapsible=1;marginBottom=0;whiteSpace=wrap;html=1;fontColor=#ffffff;strokeColor=#314354;" vertex="1" parent="1">
          <mxGeometry x="459" y="301" width="150" height="66" as="geometry" />
        </mxCell>
        <mxCell id="G_4C587izHfnSDJgf1kJ-98" value="" style="endArrow=none;html=1;endSize=12;startArrow=none;startSize=14;startFill=0;edgeStyle=orthogonalEdgeStyle;rounded=0;exitX=0;exitY=0.25;exitDx=0;exitDy=0;entryX=0.75;entryY=1;entryDx=0;entryDy=0;" edge="1" parent="1" source="G_4C587izHfnSDJgf1kJ-96" target="G_4C587izHfnSDJgf1kJ-72">
          <mxGeometry relative="1" as="geometry">
            <mxPoint x="459" y="353.9999999999999" as="sourcePoint" />
            <mxPoint x="420" y="292" as="targetPoint" />
          </mxGeometry>
        </mxCell>
        <mxCell id="G_4C587izHfnSDJgf1kJ-99" value="&lt;div&gt;1..n&lt;/div&gt;" style="edgeLabel;resizable=0;html=1;align=left;verticalAlign=top;" connectable="0" vertex="1" parent="G_4C587izHfnSDJgf1kJ-98">
          <mxGeometry x="-1" relative="1" as="geometry">
            <mxPoint x="-29" y="-24" as="offset" />
          </mxGeometry>
        </mxCell>
        <mxCell id="G_4C587izHfnSDJgf1kJ-100" value="2" style="edgeLabel;resizable=0;html=1;align=right;verticalAlign=top;" connectable="0" vertex="1" parent="G_4C587izHfnSDJgf1kJ-98">
          <mxGeometry x="1" relative="1" as="geometry">
            <mxPoint x="11" y="-4" as="offset" />
          </mxGeometry>
        </mxCell>
        <mxCell id="G_4C587izHfnSDJgf1kJ-101" value="" style="endArrow=none;html=1;endSize=12;startArrow=open;startSize=14;startFill=0;edgeStyle=orthogonalEdgeStyle;rounded=0;entryX=0.5;entryY=0;entryDx=0;entryDy=0;dashed=1;" edge="1" parent="1" source="G_4C587izHfnSDJgf1kJ-82" target="G_4C587izHfnSDJgf1kJ-96">
          <mxGeometry relative="1" as="geometry">
            <mxPoint x="644" y="293" as="sourcePoint" />
            <mxPoint x="681" y="191" as="targetPoint" />
            <Array as="points">
              <mxPoint x="495" y="280" />
              <mxPoint x="534" y="280" />
            </Array>
          </mxGeometry>
        </mxCell>
        <mxCell id="G_4C587izHfnSDJgf1kJ-104" value="&lt;div&gt;&amp;lt;&amp;lt;objeto de valor&amp;gt;&amp;gt;&lt;br&gt;&lt;font style=&quot;font-size: 14px;&quot;&gt;EscalaExecutada&lt;/font&gt;&lt;/div&gt;" style="swimlane;fontStyle=0;childLayout=stackLayout;horizontal=1;startSize=39;fillColor=#647687;horizontalStack=0;resizeParent=1;resizeParentMax=0;resizeLast=0;collapsible=1;marginBottom=0;whiteSpace=wrap;html=1;fontColor=#ffffff;strokeColor=#314354;" vertex="1" parent="1">
          <mxGeometry x="609" y="181" width="150" height="65" as="geometry" />
        </mxCell>
        <mxCell id="G_4C587izHfnSDJgf1kJ-129" value="Contexto Militares" style="swimlane;startSize=20;horizontal=0;childLayout=treeLayout;horizontalTree=1;sortEdges=1;resizable=1;containerType=tree;fontSize=16;fillColor=#b1ddf0;strokeColor=#10739e;" vertex="1" parent="1">
          <mxGeometry x="50" y="30" width="730" height="430" as="geometry">
            <mxRectangle x="50" y="30" width="40" height="130" as="alternateBounds" />
          </mxGeometry>
        </mxCell>
        <mxCell id="G_4C587izHfnSDJgf1kJ-130" value="&lt;div&gt;&lt;div&gt;&amp;lt;&amp;lt;contexto ajudancia&amp;gt;&amp;gt;&lt;/div&gt;&lt;/div&gt;&amp;lt;&amp;lt;entidade&amp;gt;&amp;gt;&lt;br&gt;&lt;font style=&quot;font-size: 14px;&quot;&gt;Militar&lt;/font&gt;" style="swimlane;fontStyle=0;childLayout=stackLayout;horizontal=1;startSize=49;fillColor=#647687;horizontalStack=0;resizeParent=1;resizeParentMax=0;resizeLast=0;collapsible=1;marginBottom=0;whiteSpace=wrap;html=1;fontColor=#ffffff;strokeColor=#314354;" vertex="1" parent="1">
          <mxGeometry x="80" y="181" width="150" height="75" as="geometry" />
        </mxCell>
        <mxCell id="G_4C587izHfnSDJgf1kJ-132" value="" style="endArrow=none;html=1;endSize=12;startArrow=none;startSize=14;startFill=0;edgeStyle=orthogonalEdgeStyle;rounded=0;exitX=0;exitY=0.5;exitDx=0;exitDy=0;entryX=0.5;entryY=0;entryDx=0;entryDy=0;" edge="1" parent="1" source="G_4C587izHfnSDJgf1kJ-72" target="G_4C587izHfnSDJgf1kJ-130">
          <mxGeometry relative="1" as="geometry">
            <mxPoint x="216.99999999999977" y="154.99999999999977" as="sourcePoint" />
            <mxPoint x="150" y="207" as="targetPoint" />
          </mxGeometry>
        </mxCell>
        <mxCell id="G_4C587izHfnSDJgf1kJ-133" value="&lt;div&gt;1..n&lt;/div&gt;" style="edgeLabel;resizable=0;html=1;align=left;verticalAlign=top;" connectable="0" vertex="1" parent="G_4C587izHfnSDJgf1kJ-132">
          <mxGeometry x="-1" relative="1" as="geometry">
            <mxPoint x="-34" y="-24" as="offset" />
          </mxGeometry>
        </mxCell>
        <mxCell id="G_4C587izHfnSDJgf1kJ-134" value="1" style="edgeLabel;resizable=0;html=1;align=right;verticalAlign=top;" connectable="0" vertex="1" parent="G_4C587izHfnSDJgf1kJ-132">
          <mxGeometry x="1" relative="1" as="geometry">
            <mxPoint x="13" y="-25" as="offset" />
          </mxGeometry>
        </mxCell>
        <mxCell id="G_4C587izHfnSDJgf1kJ-115" value="&lt;div&gt;&lt;div&gt;&lt;div&gt;&lt;div&gt;&amp;lt;&amp;lt;contexto comando&amp;gt;&amp;gt;&lt;/div&gt;&lt;/div&gt;&lt;/div&gt;&lt;/div&gt;&lt;div&gt;&amp;lt;&amp;lt;entidade&amp;gt;&amp;gt;&lt;br&gt;&lt;font style=&quot;font-size: 14px;&quot;&gt;AnalisePermutas&lt;/font&gt;&lt;/div&gt;" style="swimlane;fontStyle=0;childLayout=stackLayout;horizontal=1;startSize=54;fillColor=#647687;horizontalStack=0;resizeParent=1;resizeParentMax=0;resizeLast=0;collapsible=1;marginBottom=0;whiteSpace=wrap;html=1;fontColor=#ffffff;strokeColor=#314354;" vertex="1" parent="1">
          <mxGeometry x="250" y="337" width="150" height="80" as="geometry" />
        </mxCell>
        <mxCell id="G_4C587izHfnSDJgf1kJ-176" value="&lt;div&gt;&amp;lt;&amp;lt;classe abstrata&amp;gt;&amp;gt;&lt;/div&gt;&lt;div&gt;&lt;font style=&quot;font-size: 14px;&quot;&gt;Escala&lt;/font&gt;&lt;/div&gt;" style="swimlane;fontStyle=0;childLayout=stackLayout;horizontal=1;startSize=39;fillColor=#647687;horizontalStack=0;resizeParent=1;resizeParentMax=0;resizeLast=0;collapsible=1;marginBottom=0;whiteSpace=wrap;html=1;fontColor=#ffffff;strokeColor=#314354;" vertex="1" parent="1">
          <mxGeometry x="459" y="50" width="150" height="91" as="geometry" />
        </mxCell>
        <mxCell id="G_4C587izHfnSDJgf1kJ-177" value="- dataInicial: Date" style="text;strokeColor=none;fillColor=none;align=left;verticalAlign=top;spacingLeft=4;spacingRight=4;overflow=hidden;rotatable=0;points=[[0,0.5],[1,0.5]];portConstraint=eastwest;whiteSpace=wrap;html=1;" vertex="1" parent="G_4C587izHfnSDJgf1kJ-176">
          <mxGeometry y="39" width="150" height="26" as="geometry" />
        </mxCell>
        <mxCell id="G_4C587izHfnSDJgf1kJ-178" value="- dataFinal: Date" style="text;strokeColor=none;fillColor=none;align=left;verticalAlign=top;spacingLeft=4;spacingRight=4;overflow=hidden;rotatable=0;points=[[0,0.5],[1,0.5]];portConstraint=eastwest;whiteSpace=wrap;html=1;" vertex="1" parent="G_4C587izHfnSDJgf1kJ-176">
          <mxGeometry y="65" width="150" height="26" as="geometry" />
        </mxCell>
        <mxCell id="G_4C587izHfnSDJgf1kJ-180" value="" style="endArrow=none;html=1;endSize=12;startArrow=block;startSize=14;startFill=0;edgeStyle=orthogonalEdgeStyle;rounded=0;entryX=0.5;entryY=0;entryDx=0;entryDy=0;exitX=0.5;exitY=1;exitDx=0;exitDy=0;" edge="1" parent="1" source="G_4C587izHfnSDJgf1kJ-176" target="G_4C587izHfnSDJgf1kJ-82">
          <mxGeometry relative="1" as="geometry">
            <mxPoint x="550" y="120" as="sourcePoint" />
            <mxPoint x="530" y="170" as="targetPoint" />
            <Array as="points">
              <mxPoint x="534" y="170" />
              <mxPoint x="495" y="170" />
            </Array>
          </mxGeometry>
        </mxCell>
        <mxCell id="G_4C587izHfnSDJgf1kJ-181" value="" style="endArrow=none;html=1;endSize=12;startArrow=block;startSize=14;startFill=0;edgeStyle=orthogonalEdgeStyle;rounded=0;entryX=0.5;entryY=0;entryDx=0;entryDy=0;exitX=0.5;exitY=1;exitDx=0;exitDy=0;" edge="1" parent="1" source="G_4C587izHfnSDJgf1kJ-176" target="G_4C587izHfnSDJgf1kJ-104">
          <mxGeometry relative="1" as="geometry">
            <mxPoint x="710" y="80" as="sourcePoint" />
            <mxPoint x="709.66" y="140" as="targetPoint" />
            <Array as="points">
              <mxPoint x="534" y="170" />
              <mxPoint x="684" y="170" />
            </Array>
          </mxGeometry>
        </mxCell>
        <mxCell id="G_4C587izHfnSDJgf1kJ-182" value="" style="endArrow=none;html=1;endSize=12;startArrow=none;startSize=14;startFill=0;edgeStyle=orthogonalEdgeStyle;rounded=0;exitX=0.5;exitY=0;exitDx=0;exitDy=0;entryX=0;entryY=0.5;entryDx=0;entryDy=0;" edge="1" parent="1" source="G_4C587izHfnSDJgf1kJ-72" target="G_4C587izHfnSDJgf1kJ-177">
          <mxGeometry relative="1" as="geometry">
            <mxPoint x="260" y="168" as="sourcePoint" />
            <mxPoint x="215" y="236" as="targetPoint" />
          </mxGeometry>
        </mxCell>
        <mxCell id="G_4C587izHfnSDJgf1kJ-183" value="&lt;div&gt;1..n&lt;/div&gt;" style="edgeLabel;resizable=0;html=1;align=left;verticalAlign=top;" connectable="0" vertex="1" parent="G_4C587izHfnSDJgf1kJ-182">
          <mxGeometry x="-1" relative="1" as="geometry">
            <mxPoint x="-29" y="-24" as="offset" />
          </mxGeometry>
        </mxCell>
        <mxCell id="G_4C587izHfnSDJgf1kJ-184" value="1" style="edgeLabel;resizable=0;html=1;align=right;verticalAlign=top;" connectable="0" vertex="1" parent="G_4C587izHfnSDJgf1kJ-182">
          <mxGeometry x="1" relative="1" as="geometry">
            <mxPoint x="-4" y="-23" as="offset" />
          </mxGeometry>
        </mxCell>
        <mxCell id="G_4C587izHfnSDJgf1kJ-185" value="&lt;div&gt;&amp;lt;&amp;lt;objeto de valor&amp;gt;&amp;gt;&lt;br&gt;&lt;font style=&quot;font-size: 14px;&quot;&gt;Notificacao&lt;/font&gt;&lt;/div&gt;" style="swimlane;fontStyle=0;childLayout=stackLayout;horizontal=1;startSize=40;fillColor=#647687;horizontalStack=0;resizeParent=1;resizeParentMax=0;resizeLast=0;collapsible=1;marginBottom=0;whiteSpace=wrap;html=1;fontColor=#ffffff;strokeColor=#314354;" vertex="1" parent="1">
          <mxGeometry x="80" y="337" width="150" height="66" as="geometry" />
        </mxCell>
        <mxCell id="G_4C587izHfnSDJgf1kJ-186" value="" style="endArrow=none;html=1;endSize=12;startArrow=open;startSize=14;startFill=0;edgeStyle=orthogonalEdgeStyle;rounded=0;entryX=0.5;entryY=1;entryDx=0;entryDy=0;dashed=1;exitX=0.5;exitY=1;exitDx=0;exitDy=0;" edge="1" parent="1" source="G_4C587izHfnSDJgf1kJ-115" target="G_4C587izHfnSDJgf1kJ-185">
          <mxGeometry relative="1" as="geometry">
            <mxPoint x="513" y="335" as="sourcePoint" />
            <mxPoint x="758" y="49" as="targetPoint" />
            <Array as="points">
              <mxPoint x="325" y="450" />
              <mxPoint x="155" y="450" />
            </Array>
          </mxGeometry>
        </mxCell>
        <mxCell id="G_4C587izHfnSDJgf1kJ-187" value="" style="endArrow=none;html=1;endSize=12;startArrow=diamondThin;startSize=14;startFill=1;edgeStyle=orthogonalEdgeStyle;rounded=0;exitX=1;exitY=0.25;exitDx=0;exitDy=0;entryX=0;entryY=0.75;entryDx=0;entryDy=0;" edge="1" parent="1" source="G_4C587izHfnSDJgf1kJ-115" target="G_4C587izHfnSDJgf1kJ-96">
          <mxGeometry relative="1" as="geometry">
            <mxPoint x="469" y="328" as="sourcePoint" />
            <mxPoint x="373" y="206" as="targetPoint" />
          </mxGeometry>
        </mxCell>
        <mxCell id="G_4C587izHfnSDJgf1kJ-190" value="" style="endArrow=none;html=1;endSize=12;startArrow=open;startSize=14;startFill=0;edgeStyle=orthogonalEdgeStyle;rounded=0;entryX=0;entryY=0.5;entryDx=0;entryDy=0;dashed=1;exitX=1;exitY=0.5;exitDx=0;exitDy=0;" edge="1" parent="1" source="G_4C587izHfnSDJgf1kJ-82" target="G_4C587izHfnSDJgf1kJ-104">
          <mxGeometry relative="1" as="geometry">
            <mxPoint x="519" y="222" as="sourcePoint" />
            <mxPoint x="604" y="222" as="targetPoint" />
          </mxGeometry>
        </mxCell>
        <mxCell id="G_4C587izHfnSDJgf1kJ-191" value="" style="endArrow=none;html=1;endSize=12;startArrow=open;startSize=14;startFill=0;edgeStyle=orthogonalEdgeStyle;rounded=0;entryX=0.5;entryY=1;entryDx=0;entryDy=0;dashed=1;exitX=1;exitY=0.75;exitDx=0;exitDy=0;" edge="1" parent="1" source="G_4C587izHfnSDJgf1kJ-115" target="G_4C587izHfnSDJgf1kJ-104">
          <mxGeometry relative="1" as="geometry">
            <mxPoint x="660" y="376.65999999999997" as="sourcePoint" />
            <mxPoint x="725" y="376.65999999999997" as="targetPoint" />
          </mxGeometry>
        </mxCell>
      </root>
    </mxGraphModel>
  </diagram>
</mxfile>
